<svg width="15" height="15" viewBox="0 0 15 15" fill="none" xmlns="http://www.w3.org/2000/svg">
<path d="M5.87512 9.99979H1.875C1.18463 9.99979 0.625 9.44015 0.625 8.74981V7.43456C0.625 7.27131 0.657 7.10962 0.719125 6.95862L2.65313 2.26181C2.74956 2.02763 2.97781 1.87481 3.23106 1.87481H13.75C14.0952 1.87481 14.375 2.15463 14.375 2.49981V8.74981C14.375 9.09497 14.0952 9.37479 13.75 9.37479H11.5738C11.3708 9.37479 11.1804 9.47346 11.0632 9.63937L7.65487 14.4679C7.56581 14.5941 7.39794 14.6363 7.25981 14.5672L6.126 14.0003C5.46875 13.6717 5.12931 12.9294 5.31056 12.2173L5.87512 9.99979ZM10.625 8.38262V3.12481H3.64962L1.875 7.43456V8.74981H5.87512C6.69056 8.74981 7.28762 9.51795 7.0865 10.3082L6.52194 12.5257C6.48569 12.6681 6.55356 12.8165 6.68506 12.8823L7.09825 13.0889L10.042 8.91851C10.1982 8.69725 10.3979 8.51587 10.625 8.38262ZM11.875 8.12481H13.125V3.12481H11.875V8.12481Z" fill="black"/>
<rect x="11" y="9" width="8" height="6" transform="rotate(180 11 9)" fill="black"/>
<rect x="7.08594" y="14" width="1.85536" height="7" transform="rotate(-146 7.08594 14)" fill="black"/>
<rect x="9" y="11" width="3" height="3" transform="rotate(180 9 11)" fill="black"/>
<rect x="3" y="9" width="1" height="5" transform="rotate(180 3 9)" fill="black"/>
<rect x="2" y="9" width="1" height="2" transform="rotate(180 2 9)" fill="black"/>
</svg>
