<svg width="35" height="35" viewBox="0 0 35 35" fill="none" xmlns="http://www.w3.org/2000/svg">
<path d="M17.5003 12.8487L19.885 9.46232C20.8138 8.14351 22.3389 7.29167 24.0628 7.29167C26.8818 7.29167 29.167 9.57688 29.167 12.3958C29.167 16.5941 26.3097 20.5939 22.813 23.823C21.1282 25.3789 19.4307 26.6296 18.1494 27.4926C17.9176 27.6488 17.7003 27.7916 17.5002 27.9207C17.3001 27.7916 17.0828 27.6488 16.8509 27.4926C15.5696 26.6298 13.8722 25.3791 12.1874 23.823C8.69091 20.594 5.83366 16.5941 5.83366 12.3958C5.83366 9.57688 8.11887 7.29167 10.9378 7.29167C12.6617 7.29167 14.1869 8.14351 15.1157 9.46232L17.5003 12.8487ZM15.3941 5.7258C14.1195 4.87258 12.5868 4.375 10.9378 4.375C6.50804 4.375 2.91699 7.96604 2.91699 12.3958C2.91699 23.3333 17.5002 31.3326 17.5002 31.3326C17.5002 31.3326 32.0837 23.3333 32.0837 12.3958C32.0837 7.96604 28.4927 4.375 24.0628 4.375C22.4139 4.375 20.8812 4.87258 19.6066 5.7258C18.7844 6.27623 18.0695 6.97467 17.5003 7.78301C16.9311 6.97467 16.2163 6.27623 15.3941 5.7258Z" fill="black"/>
<path d="M17.5 14.2297L19.544 11.3405C20.3401 10.2153 21.6474 9.48848 23.125 9.48848C25.5412 9.48848 27.5 11.4382 27.5 13.8433C27.5 17.4252 25.0509 20.8378 22.0537 23.5929C20.6096 24.9204 19.1546 25.9875 18.0564 26.7238C17.8576 26.8571 17.6714 26.9789 17.4999 27.089C17.3284 26.9789 17.1421 26.8571 16.9434 26.7238C15.8451 25.9876 14.3902 24.9205 12.9461 23.5929C9.94907 20.8379 7.5 17.4252 7.5 13.8433C7.5 11.4382 9.45875 9.48848 11.875 9.48848C13.3526 9.48848 14.6599 10.2153 15.456 11.3405L17.5 14.2297ZM15.6946 8.15249C14.6022 7.42453 13.2884 7 11.875 7C8.07804 7 5 10.0639 5 13.8433C5 23.1751 17.4999 30 17.4999 30C17.4999 30 30 23.1751 30 13.8433C30 10.0639 26.922 7 23.125 7C21.7116 7 20.3979 7.42453 19.3054 8.15249C18.6006 8.62211 17.9879 9.21802 17.5 9.90769C17.0121 9.21802 16.3994 8.62211 15.6946 8.15249Z" fill="black"/>
<path d="M17.5 14.9724L19.217 12.5856C19.8857 11.6561 20.9838 11.0557 22.225 11.0557C24.2546 11.0557 25.9 12.6663 25.9 14.6532C25.9 17.6121 23.8427 20.4312 21.3251 22.7072C20.1121 23.8038 18.8899 24.6853 17.9674 25.2936C17.8004 25.4037 17.644 25.5043 17.4999 25.5952C17.3558 25.5043 17.1994 25.4037 17.0324 25.2936C16.1099 24.6854 14.8878 23.8039 13.6747 22.7072C11.1572 20.4313 9.1 17.6121 9.1 14.6532C9.1 12.6663 10.7453 11.0557 12.775 11.0557C14.0162 11.0557 15.1143 11.6561 15.783 12.5856L17.5 14.9724ZM15.9835 9.95206C15.0658 9.3507 13.9622 9 12.775 9C9.58555 9 7 11.531 7 14.6532C7 22.362 17.4999 28 17.4999 28C17.4999 28 28 22.362 28 14.6532C28 11.531 25.4145 9 22.225 9C21.0378 9 19.9342 9.3507 19.0165 9.95206C18.4245 10.34 17.9098 10.8323 17.5 11.402C17.0902 10.8323 16.5755 10.34 15.9835 9.95206Z" fill="black"/>
<path d="M17.5 15.715L19.0534 13.8307C19.6585 13.0969 20.652 12.6229 21.775 12.6229C23.6113 12.6229 25.1 13.8945 25.1 15.463C25.1 17.7991 23.2387 20.0247 20.9608 21.8215C19.8633 22.6872 18.7575 23.3831 17.9228 23.8633C17.7718 23.9503 17.6302 24.0297 17.4999 24.1015C17.3696 24.0297 17.228 23.9503 17.077 23.8633C16.2423 23.3832 15.1366 22.6873 14.039 21.8215C11.7613 20.0247 9.9 17.7991 9.9 15.463C9.9 13.8945 11.3886 12.6229 13.225 12.6229C14.348 12.6229 15.3415 13.0969 15.9466 13.8307L17.5 15.715ZM16.1279 11.7516C15.2976 11.2769 14.2992 11 13.225 11C10.3393 11 8 12.9982 8 15.463C8 21.549 17.4999 26 17.4999 26C17.4999 26 27 21.549 27 15.463C27 12.9982 24.6607 11 21.775 11C20.7008 11 19.7024 11.2769 18.8721 11.7516C18.3365 12.0579 17.8708 12.4465 17.5 12.8963C17.1292 12.4465 16.6635 12.0579 16.1279 11.7516Z" fill="black"/>
<rect x="9" y="12" width="17" height="9" fill="black"/>
<rect x="13" y="20" width="9" height="5" fill="black"/>
</svg>
