<svg width="35" height="35" viewBox="0 0 35 35" fill="none" xmlns="http://www.w3.org/2000/svg">
<path d="M17.5003 12.8487L19.885 9.46232C20.8138 8.14351 22.3389 7.29167 24.0628 7.29167C26.8818 7.29167 29.167 9.57688 29.167 12.3958C29.167 16.5941 26.3097 20.5939 22.813 23.823C21.1282 25.3789 19.4307 26.6296 18.1494 27.4926C17.9176 27.6488 17.7003 27.7916 17.5002 27.9207C17.3001 27.7916 17.0828 27.6488 16.8509 27.4926C15.5696 26.6298 13.8722 25.3791 12.1874 23.823C8.69091 20.594 5.83366 16.5941 5.83366 12.3958C5.83366 9.57688 8.11887 7.29167 10.9378 7.29167C12.6617 7.29167 14.1869 8.14351 15.1157 9.46232L17.5003 12.8487ZM15.3941 5.7258C14.1195 4.87258 12.5868 4.375 10.9378 4.375C6.50804 4.375 2.91699 7.96604 2.91699 12.3958C2.91699 23.3333 17.5002 31.3326 17.5002 31.3326C17.5002 31.3326 32.0837 23.3333 32.0837 12.3958C32.0837 7.96604 28.4927 4.375 24.0628 4.375C22.4139 4.375 20.8812 4.87258 19.6066 5.7258C18.7844 6.27623 18.0695 6.97467 17.5003 7.78301C16.9311 6.97467 16.2163 6.27623 15.3941 5.7258Z" fill="black"/>
</svg>
