<svg width="15" height="15" viewBox="0 0 15 15" fill="none" xmlns="http://www.w3.org/2000/svg">
<path d="M9.12488 5.00021H13.125C13.8154 5.00021 14.375 5.55985 14.375 6.25019V7.56544C14.375 7.72869 14.343 7.89038 14.2809 8.04138L12.3469 12.7382C12.2504 12.9724 12.0222 13.1252 11.7689 13.1252H1.25C0.904825 13.1252 0.625 12.8454 0.625 12.5002V6.25019C0.625 5.90503 0.904825 5.62521 1.25 5.62521H3.42615C3.62923 5.62521 3.81964 5.52654 3.93676 5.36063L7.34513 0.532097C7.43419 0.405929 7.60206 0.363736 7.74019 0.432802L8.874 0.999694C9.53125 1.32834 9.87069 2.07057 9.68944 2.78272L9.12488 5.00021ZM4.375 6.61737V11.8752H11.3504L13.125 7.56544V6.25019H9.12488C8.30944 6.25019 7.71238 5.48205 7.9135 4.69182L8.47806 2.47434C8.51431 2.33191 8.44644 2.18346 8.31494 2.11773L7.90175 1.91113L4.95797 6.08149C4.80178 6.30275 4.60213 6.48413 4.375 6.61737ZM3.125 6.87519H1.875V11.8752H3.125V6.87519Z" fill="black"/>
</svg>
