<svg width="122" height="15" viewBox="0 0 122 15" fill="none" xmlns="http://www.w3.org/2000/svg">
<path d="M4.43757e-05 14.7444V0.19893H9.63073V2.73444H3.07533V6.20035H8.99152V8.73586H3.07533V14.7444H4.43757e-05ZM10.847 0.19893H14.2916L17.6084 6.46313H17.7504L21.0672 0.19893H24.5118L19.2064 9.60234V14.7444H16.1524V9.60234L10.847 0.19893ZM26.1915 14.7444V0.19893H31.9301C33.0286 0.19893 33.9661 0.395426 34.7426 0.788419C35.5238 1.17668 36.1181 1.72829 36.5253 2.44325C36.9372 3.15348 37.1432 3.98918 37.1432 4.95035C37.1432 5.91626 36.9348 6.74723 36.5182 7.44325C36.1015 8.13454 35.4978 8.66484 34.7071 9.03416C33.9211 9.40348 32.9694 9.58813 31.852 9.58813H28.0096V7.11654H31.3548C31.9419 7.11654 32.4296 7.03605 32.8179 6.87507C33.2061 6.71408 33.495 6.4726 33.6843 6.15063C33.8785 5.82866 33.9755 5.42857 33.9755 4.95035C33.9755 4.4674 33.8785 4.0602 33.6843 3.72876C33.495 3.39732 33.2038 3.14637 32.8108 2.97592C32.4225 2.80073 31.9325 2.71313 31.3406 2.71313H29.2667V14.7444H26.1915ZM34.0466 8.12507L37.6616 14.7444H34.2667L30.7298 8.12507H34.0466ZM39.3165 14.7444V0.19893H45.0551C46.1536 0.19893 47.0911 0.395426 47.8676 0.788419C48.6488 1.17668 49.2431 1.72829 49.6503 2.44325C50.0622 3.15348 50.2682 3.98918 50.2682 4.95035C50.2682 5.91626 50.0598 6.74723 49.6432 7.44325C49.2265 8.13454 48.6228 8.66484 47.8321 9.03416C47.0461 9.40348 46.0944 9.58813 44.977 9.58813H41.1346V7.11654H44.4798C45.0669 7.11654 45.5546 7.03605 45.9429 6.87507C46.3311 6.71408 46.62 6.4726 46.8093 6.15063C47.0035 5.82866 47.1005 5.42857 47.1005 4.95035C47.1005 4.4674 47.0035 4.0602 46.8093 3.72876C46.62 3.39732 46.3288 3.14637 45.9358 2.97592C45.5475 2.80073 45.0575 2.71313 44.4656 2.71313H42.3917V14.7444H39.3165ZM47.1716 8.12507L50.7866 14.7444H47.3917L43.8548 8.12507H47.1716ZM52.4415 14.7444V0.19893H62.2426V2.73444H55.5167V6.20035H61.7383V8.73586H55.5167V12.2089H62.271V14.7444H52.4415ZM69.3165 14.7444V0.19893H75.1403C76.2104 0.19893 77.1029 0.357547 77.8179 0.674782C78.5328 0.992017 79.0702 1.43236 79.4301 1.9958C79.7899 2.55452 79.9699 3.19846 79.9699 3.92762C79.9699 4.49581 79.8562 4.99533 79.629 5.4262C79.4017 5.85234 79.0892 6.20272 78.6915 6.47734C78.2985 6.74723 77.8486 6.93899 77.342 7.05262V7.19467C77.896 7.21834 78.4145 7.37459 78.8974 7.66342C79.3851 7.95224 79.7805 8.35707 80.0835 8.87791C80.3865 9.39401 80.538 10.0095 80.538 10.7245C80.538 11.4963 80.3463 12.1852 79.9628 12.7913C79.584 13.3926 79.0229 13.8684 78.2795 14.2188C77.5361 14.5692 76.62 14.7444 75.5309 14.7444H69.3165ZM72.3917 12.2302H74.8988C75.7558 12.2302 76.3808 12.0668 76.7738 11.7401C77.1668 11.4087 77.3633 10.9683 77.3633 10.4191C77.3633 10.0166 77.2663 9.66152 77.0721 9.35376C76.878 9.04599 76.601 8.80452 76.2412 8.62933C75.8861 8.45414 75.4623 8.36654 74.9699 8.36654H72.3917V12.2302ZM72.3917 6.28558H74.6716C75.093 6.28558 75.467 6.21219 75.7937 6.06541C76.1252 5.91389 76.3856 5.70082 76.575 5.4262C76.7691 5.15158 76.8662 4.82251 76.8662 4.43899C76.8662 3.91342 76.6791 3.48965 76.3051 3.16768C75.9358 2.84571 75.4102 2.68472 74.7284 2.68472H72.3917V6.28558ZM82.5391 14.7444V0.19893H85.6144V12.2089H91.8502V14.7444H82.5391ZM106.687 7.47166C106.687 9.05783 106.386 10.4073 105.785 11.52C105.188 12.6326 104.374 13.4825 103.342 14.0697C102.314 14.6521 101.159 14.9432 99.8758 14.9432C98.5831 14.9432 97.4231 14.6497 96.3956 14.0626C95.3682 13.4754 94.5562 12.6255 93.9596 11.5129C93.363 10.4002 93.0647 9.0531 93.0647 7.47166C93.0647 5.88548 93.363 4.53605 93.9596 3.42336C94.5562 2.31067 95.3682 1.46313 96.3956 0.880749C97.4231 0.293627 98.5831 6.60419e-05 99.8758 6.60419e-05C101.159 6.60419e-05 102.314 0.293627 103.342 0.880749C104.374 1.46313 105.188 2.31067 105.785 3.42336C106.386 4.53605 106.687 5.88548 106.687 7.47166ZM103.569 7.47166C103.569 6.4442 103.415 5.57772 103.107 4.87223C102.804 4.16673 102.376 3.6317 101.822 3.26711C101.268 2.90253 100.619 2.72024 99.8758 2.72024C99.1324 2.72024 98.4837 2.90253 97.9297 3.26711C97.3758 3.6317 96.9449 4.16673 96.6371 4.87223C96.3341 5.57772 96.1826 6.4442 96.1826 7.47166C96.1826 8.49912 96.3341 9.3656 96.6371 10.0711C96.9449 10.7766 97.3758 11.3116 97.9297 11.6762C98.4837 12.0408 99.1324 12.2231 99.8758 12.2231C100.619 12.2231 101.268 12.0408 101.822 11.6762C102.376 11.3116 102.804 10.7766 103.107 10.0711C103.415 9.3656 103.569 8.49912 103.569 7.47166ZM118.61 4.90063C118.51 4.55499 118.371 4.24959 118.191 3.98444C118.011 3.71456 117.791 3.48728 117.53 3.30262C117.275 3.11323 116.981 2.96882 116.65 2.86938C116.323 2.76995 115.961 2.72024 115.563 2.72024C114.82 2.72024 114.166 2.9049 113.603 3.27421C113.044 3.64353 112.608 4.18094 112.296 4.88643C111.983 5.58719 111.827 6.44419 111.827 7.45745C111.827 8.47071 111.981 9.33245 112.289 10.0427C112.597 10.7529 113.032 11.295 113.596 11.6691C114.159 12.0384 114.824 12.2231 115.591 12.2231C116.287 12.2231 116.882 12.1 117.374 11.8538C117.871 11.6028 118.25 11.2501 118.51 10.7955C118.775 10.341 118.908 9.80357 118.908 9.1833L119.533 9.27563H115.783V6.96029H121.87V8.79268C121.87 10.0711 121.6 11.1696 121.06 12.0881C120.52 13.002 119.777 13.7075 118.83 14.2046C117.883 14.697 116.799 14.9432 115.577 14.9432C114.213 14.9432 113.016 14.6426 111.983 14.0413C110.951 13.4352 110.146 12.5758 109.569 11.4631C108.996 10.3457 108.709 9.01995 108.709 7.48586C108.709 6.30688 108.88 5.25575 109.221 4.33245C109.566 3.40442 110.049 2.61844 110.669 1.9745C111.29 1.33056 112.012 0.840501 112.836 0.504327C113.659 0.168153 114.552 6.60419e-05 115.513 6.60419e-05C116.337 6.60419e-05 117.104 0.120805 117.814 0.362282C118.525 0.599025 119.154 0.935199 119.704 1.3708C120.258 1.80641 120.71 2.32488 121.06 2.9262C121.41 3.52279 121.635 4.18094 121.735 4.90063H118.61Z" fill="black"/>
</svg>
