<svg width="35" height="35" viewBox="0 0 35 35" fill="none" xmlns="http://www.w3.org/2000/svg">
<path d="M17.501 26.6291L7.21467 32.3869L9.51203 20.8248L0.857422 12.8213L12.5635 11.4334L17.501 0.729126L22.4383 11.4334L34.1443 12.8213L25.4899 20.8248L27.7872 32.3869L17.501 26.6291ZM17.501 23.2866L23.6941 26.7532L22.3108 19.792L27.5216 14.9733L20.4736 14.1375L17.501 7.6927L14.5282 14.1375L7.48018 14.9733L12.6909 19.792L11.3077 26.7532L17.501 23.2866Z" fill="black"/>
<path d="M17.5 21.4537L12.8648 24L13.9 18.8869L10 15.3475L15.2751 14.7337L17.5 10L19.7249 14.7337L25 15.3475L21.1001 18.8869L22.1353 24L17.5 21.4537ZM17.5 19.9756L20.2908 21.5086L19.6675 18.4302L22.0156 16.2992L18.8396 15.9296L17.5 13.0795L16.1604 15.9296L12.9844 16.2992L15.3325 18.4302L14.7092 21.5086L17.5 19.9756Z" fill="black"/>
<path d="M17.5 20.1812L14.1008 22L14.86 18.3478L12 15.8197L15.8684 15.3812L17.5 12L19.1316 15.3812L23 15.8197L20.14 18.3478L20.8992 22L17.5 20.1812ZM17.5 19.1254L19.5466 20.2204L19.0895 18.0215L20.8115 16.4994L18.4824 16.2354L17.5 14.1996L16.5176 16.2354L14.1886 16.4994L15.9105 18.0215L15.4534 20.2204L17.5 19.1254Z" fill="black"/>
<path d="M17.5 19.545L14.7189 21L15.34 18.0782L13 16.0557L16.1651 15.705L17.5 13L18.835 15.705L22 16.0557L19.66 18.0782L20.2812 21L17.5 19.545ZM17.5 18.7003L19.1745 19.5764L18.8005 17.8172L20.2094 16.5995L18.3038 16.3883L17.5 14.7597L16.6963 16.3883L14.7906 16.5995L16.1995 17.8172L15.8255 19.5764L17.5 18.7003Z" fill="black"/>
<path d="M17.5 23.3625L11.0107 27L12.46 19.6956L7 14.6393L14.3851 13.7625L17.5 7L20.6149 13.7625L28 14.6393L22.5401 19.6956L23.9894 27L17.5 23.3625ZM17.5 21.2508L21.4071 23.4409L20.5345 19.0431L23.8219 15.9988L19.3754 15.4708L17.5 11.3993L15.6246 15.4708L11.1782 15.9988L14.4655 19.0431L13.5929 23.4409L17.5 21.2508Z" fill="black"/>
<rect x="14" y="14" width="7" height="7" fill="black"/>
</svg>
